<svg width="16" height="16" viewBox="0 0 16 16" fill="none" xmlns="http://www.w3.org/2000/svg">
<g clip-path="url(#clip0_2_38)">
<path d="M11 12V11H14V12H11Z" fill="#AFB1B3"/>
<path d="M11 12V9H12V12H11Z" fill="#AFB1B3"/>
<path fill-rule="evenodd" clip-rule="evenodd" d="M15 11.5C15 13.433 13.433 15 11.5 15C9.567 15 8 13.433 8 11.5C8 9.567 9.567 8 11.5 8C13.433 8 15 9.567 15 11.5ZM16 11.5C16 9.01472 13.9853 7 11.5 7C9.01472 7 7 9.01472 7 11.5C7 13.9853 9.01472 16 11.5 16C13.9853 16 16 13.9853 16 11.5Z" fill="#AFB1B3"/>
<path fill-rule="evenodd" clip-rule="evenodd" d="M6.49927 13.8151C4.12017 13.2039 2.3381 11.1803 2.04196 8.73178L3.89555 8.89395C4.15549 10.0909 4.92864 11.1069 5.98378 11.6852C6.01111 12.4417 6.19269 13.1625 6.49927 13.8151ZM13.8074 6.49527C13.1847 6.20432 12.4967 6.02601 11.7681 5.98783C11.7406 5.98639 11.7131 5.98515 11.6857 5.98411C11.0092 4.7503 9.72857 3.88475 8.22019 3.8057C6.92049 3.73759 5.72789 4.26787 4.90991 5.15565L6.99348 7.23917L1.99348 7.23917L1.99348 2.23928L3.63755 3.88331C4.80424 2.64979 6.48428 1.91662 8.31267 2.01245C10.9916 2.15284 13.1677 4.02977 13.8074 6.49527Z" fill="#AFB1B3"/>
</g>
<defs>
<clipPath id="clip0_2_38">
<rect width="16" height="16" fill="white"/>
</clipPath>
</defs>
</svg>
