<svg width="16" height="16" viewBox="0 0 16 16" fill="none" xmlns="http://www.w3.org/2000/svg">
<path fill-rule="evenodd" clip-rule="evenodd" d="M6.119 3H2.88L4.499 1L6.119 3Z" fill="#9AA7B0"/>
<path d="M5 3H4V8H5V3Z" fill="#9AA7B0"/>
<path d="M8 11H3V12H8V11Z" fill="#9AA7B0"/>
<path fill-rule="evenodd" clip-rule="evenodd" d="M3 9.896V13.135L1 11.517L3 9.896Z" fill="#9AA7B0"/>
<path fill-rule="evenodd" clip-rule="evenodd" d="M9.881 13H13.12L11.502 15L9.881 13Z" fill="#9AA7B0"/>
<path d="M10.9998 13L11.9998 13L12.0002 8.00003L11.0002 7.99996L10.9998 13Z" fill="#9AA7B0"/>
<path d="M7.99997 4.99983L13 5.00018L13 4.00018L8.00004 3.99983L7.99997 4.99983Z" fill="#9AA7B0"/>
<path fill-rule="evenodd" clip-rule="evenodd" d="M7.99982 4C5.79068 4 3.99982 5.79086 3.99982 8C3.99982 10.2091 5.79068 12 7.99982 12C10.209 12 11.9998 10.2091 11.9998 8C11.9998 6.93913 11.5784 5.92172 10.8282 5.17157C10.0781 4.42143 9.06068 4 7.99982 4ZM7.99982 10.6084C6.9447 10.6084 5.99348 9.9728 5.58972 8.99799C5.18597 8.02318 5.4092 6.90113 6.15531 6.15509C6.90143 5.40904 8.02349 5.18592 8.99827 5.58976C9.97304 5.9936 10.6086 6.94488 10.6085 8C10.6083 9.44062 9.44044 10.6084 7.99982 10.6084Z" fill="#9AA7B0"/>
<path fill-rule="evenodd" clip-rule="evenodd" d="M13 6.10399V2.86499L15 4.48299L13 6.10399Z" fill="#9AA7B0"/>
</svg>
